<svg width="36" height="48" viewBox="75 0 36 48" fill="none" xmlns="http://www.w3.org/2000/svg"><mask id="mask0_291_17651" style="mask-type:luminance" maskUnits="userSpaceOnUse" x="106" y="43" width="5" height="6"><path d="M111 43.8574H106.623V48.2337H111V43.8574Z" fill="white"></path></mask><g mask="url(#mask0_291_17651)"><path d="M108.88 46.1075C109.053 46.1075 109.188 46.0692 109.282 45.9927C109.378 45.9168 109.425 45.8104 109.425 45.6742C109.425 45.5374 109.378 45.4316 109.282 45.3577C109.188 45.2831 109.053 45.2461 108.88 45.2461H108.421V46.1075H108.88ZM109.812 46.1393C109.728 46.2664 109.607 46.3644 109.45 46.4299L109.995 47.2666H109.462L108.979 46.5227H108.911H108.428V47.2666H107.894V44.8245H108.911C109.229 44.8245 109.48 44.901 109.664 45.0541C109.847 45.2066 109.94 45.4141 109.94 45.6742C109.94 45.8552 109.897 46.0109 109.812 46.1393ZM109.738 47.6448C110.017 47.4794 110.237 47.2562 110.399 46.9721C110.56 46.6887 110.64 46.376 110.64 46.0336C110.64 45.6898 110.562 45.3791 110.405 45.1002C110.248 44.8219 110.03 44.6014 109.754 44.4405C109.477 44.2797 109.164 44.1986 108.818 44.1986C108.47 44.1986 108.156 44.2803 107.876 44.4438C107.595 44.6072 107.374 44.8291 107.216 45.1099C107.056 45.3908 106.977 45.7028 106.977 46.0452C106.977 46.389 107.056 46.7004 107.216 46.9819C107.374 47.2627 107.593 47.4846 107.872 47.648C108.151 47.8115 108.463 47.8932 108.805 47.8932C109.148 47.8932 109.46 47.8102 109.738 47.6448ZM109.93 44.1428C110.263 44.3329 110.524 44.5943 110.715 44.927C110.905 45.2591 111 45.6288 111 46.0336C111 46.439 110.903 46.8087 110.708 47.1466C110.514 47.4826 110.25 47.7486 109.915 47.9418C109.58 48.1364 109.21 48.2337 108.805 48.2337C108.4 48.2337 108.031 48.1364 107.699 47.9418C107.366 47.7486 107.104 47.4839 106.912 47.1486C106.72 46.8145 106.623 46.4461 106.623 46.0452C106.623 45.645 106.72 45.2773 106.912 44.9419C107.104 44.6072 107.368 44.3432 107.702 44.1486C108.037 43.9553 108.409 43.8574 108.818 43.8574C109.227 43.8574 109.597 43.9528 109.93 44.1428Z" fill="#00ACC8"></path></g><g clip-path="url(#clip0_291_17651)"><mask id="mask1_291_17651" style="mask-type:luminance" maskUnits="userSpaceOnUse" x="75" y="0" width="36" height="42"><path d="M111 0H75.9842V41.5724H111V0Z" fill="white"></path></mask><g mask="url(#mask1_291_17651)"><path d="M102.695 22.6452C102.695 23.978 101.615 25.0582 100.282 25.0582C98.9492 25.0582 97.8686 23.978 97.8686 22.6452V10.2639C97.8686 8.93102 98.9492 7.85041 100.282 7.85041C101.615 7.85041 102.695 8.93102 102.695 10.2639V22.6452ZM95.0113 22.6452C95.0113 23.978 93.9311 25.0582 92.5982 25.0582C91.2657 25.0582 90.1851 23.978 90.1851 22.6452V16.8225C90.1851 15.4896 91.2657 14.4098 92.5982 14.4098C93.9311 14.4098 95.0113 15.4896 95.0113 16.8225V22.6452ZM84.9148 25.0582C83.5823 25.0582 82.5017 23.978 82.5017 22.6452C82.5017 21.3127 83.5823 20.2325 84.9148 20.2325C86.2473 20.2325 87.3275 21.3127 87.3275 22.6452C87.3275 23.978 86.2473 25.0582 84.9148 25.0582ZM109.278 0H77.706C76.7549 0 75.9842 0.771051 75.9842 1.72176V30.6105C75.9842 31.5616 76.7553 32.3322 77.7064 32.3322H99.3826C100.178 32.3322 100.933 32.6816 101.448 33.2873L108.06 41.0647C109.145 42.1492 111 41.3813 111 39.8467V1.72176C111 0.771051 110.229 0 109.278 0Z" fill="#00ACC8"></path></g></g><defs><clipPath id="clip0_291_17651"><rect width="35.0158" height="41.5724" fill="white" transform="translate(75.9842)"></rect></clipPath></defs></svg>